<svg width="1200" height="320" viewBox="0 0 1200 320" fill="none" xmlns="http://www.w3.org/2000/svg">
<rect width="1200" height="320" rx="32" fill="#BEA3F8"/>
<path d="M505.887 193.6C505.247 193.6 504.671 193.376 504.159 192.928C503.711 192.48 503.487 191.904 503.487 191.2V128.8C503.487 128.096 503.711 127.52 504.159 127.072C504.671 126.624 505.247 126.4 505.887 126.4H516.255C517.279 126.4 518.047 126.688 518.559 127.264C519.135 127.776 519.487 128.192 519.615 128.512L536.511 158.848L553.407 128.512C553.599 128.192 553.919 127.776 554.367 127.264C554.879 126.688 555.679 126.4 556.767 126.4H567.039C567.743 126.4 568.319 126.624 568.767 127.072C569.279 127.52 569.535 128.096 569.535 128.8V191.2C569.535 191.904 569.279 192.48 568.767 192.928C568.319 193.376 567.743 193.6 567.039 193.6H555.615C554.911 193.6 554.303 193.376 553.791 192.928C553.343 192.48 553.119 191.904 553.119 191.2V155.2L542.271 175.264C542.015 175.84 541.631 176.352 541.119 176.8C540.607 177.248 539.903 177.472 539.007 177.472H534.015C533.119 177.472 532.415 177.248 531.903 176.8C531.391 176.352 530.975 175.84 530.655 175.264L519.807 155.2V191.2C519.807 191.904 519.583 192.48 519.135 192.928C518.687 193.376 518.111 193.6 517.407 193.6H505.887Z" fill="#19191B"/>
<path d="M579.054 193.6C578.542 193.6 578.062 193.408 577.614 193.024C577.23 192.576 577.038 192.096 577.038 191.584C577.038 191.264 577.07 190.976 577.134 190.72L599.694 129.088C599.886 128.384 600.27 127.776 600.846 127.264C601.486 126.688 602.35 126.4 603.438 126.4H617.646C618.734 126.4 619.566 126.688 620.142 127.264C620.782 127.776 621.198 128.384 621.39 129.088L643.854 190.72C643.982 190.976 644.046 191.264 644.046 191.584C644.046 192.096 643.822 192.576 643.374 193.024C642.99 193.408 642.51 193.6 641.934 193.6H630.126C629.166 193.6 628.43 193.376 627.918 192.928C627.47 192.416 627.182 191.968 627.054 191.584L623.31 181.792H597.678L594.03 191.584C593.902 191.968 593.614 192.416 593.166 192.928C592.718 193.376 591.95 193.6 590.862 193.6H579.054ZM601.614 167.968H619.47L610.446 142.624L601.614 167.968Z" fill="#19191B"/>
<path d="M661.953 193.6C661.249 193.6 660.673 193.376 660.225 192.928C659.777 192.48 659.553 191.904 659.553 191.2V141.472H642.465C641.761 141.472 641.185 141.248 640.737 140.8C640.289 140.288 640.065 139.712 640.065 139.072V128.8C640.065 128.096 640.289 127.52 640.737 127.072C641.185 126.624 641.761 126.4 642.465 126.4H694.113C694.817 126.4 695.393 126.624 695.841 127.072C696.289 127.52 696.513 128.096 696.513 128.8V139.072C696.513 139.712 696.289 140.288 695.841 140.8C695.393 141.248 694.817 141.472 694.113 141.472H677.025V191.2C677.025 191.904 676.801 192.48 676.353 192.928C675.905 193.376 675.329 193.6 674.625 193.6H661.953Z" fill="#19191B"/>
</svg>
