<svg width="256" height="256" viewBox="0 0 256 256" fill="none" xmlns="http://www.w3.org/2000/svg">
<rect width="256" height="256" rx="32" fill="#F6E2EC"/>
<path d="M56.772 161.96C50.692 161.96 45.476 160.968 41.124 158.984C36.836 157 33.476 154.088 31.044 150.248C28.676 146.408 27.364 141.64 27.108 135.944C27.044 133.32 27.012 130.504 27.012 127.496C27.012 124.488 27.044 121.608 27.108 118.856C27.364 113.288 28.708 108.584 31.14 104.744C33.572 100.84 36.964 97.896 41.316 95.912C45.668 93.864 50.82 92.84 56.772 92.84C60.996 92.84 64.9 93.384 68.484 94.472C72.068 95.496 75.204 97.032 77.892 99.08C80.58 101.064 82.66 103.496 84.132 106.376C85.668 109.192 86.468 112.392 86.532 115.976C86.596 116.552 86.404 117.032 85.956 117.416C85.572 117.8 85.092 117.992 84.516 117.992H71.556C70.724 117.992 70.084 117.832 69.636 117.512C69.188 117.128 68.804 116.456 68.484 115.496C67.588 112.104 66.116 109.8 64.068 108.584C62.084 107.304 59.62 106.664 56.676 106.664C53.156 106.664 50.372 107.656 48.324 109.64C46.276 111.56 45.156 114.792 44.964 119.336C44.772 124.584 44.772 129.96 44.964 135.464C45.156 140.008 46.276 143.272 48.324 145.256C50.372 147.176 53.156 148.136 56.676 148.136C59.62 148.136 62.116 147.496 64.164 146.216C66.212 144.936 67.652 142.632 68.484 139.304C68.74 138.344 69.092 137.704 69.54 137.384C70.052 137 70.724 136.808 71.556 136.808H84.516C85.092 136.808 85.572 137 85.956 137.384C86.404 137.768 86.596 138.248 86.532 138.824C86.468 142.408 85.668 145.64 84.132 148.52C82.66 151.336 80.58 153.768 77.892 155.816C75.204 157.8 72.068 159.336 68.484 160.424C64.9 161.448 60.996 161.96 56.772 161.96ZM121.682 161.96C115.282 161.96 109.97 161.064 105.746 159.272C101.522 157.416 98.3223 155.016 96.1463 152.072C93.9703 149.128 92.8183 145.992 92.6903 142.664C92.6903 142.152 92.8823 141.704 93.2663 141.32C93.7143 140.872 94.2263 140.648 94.8023 140.648H106.898C107.794 140.648 108.466 140.808 108.914 141.128C109.426 141.448 109.874 141.864 110.258 142.376C110.77 143.336 111.474 144.264 112.37 145.16C113.33 146.056 114.546 146.792 116.018 147.368C117.554 147.88 119.442 148.136 121.682 148.136C125.394 148.136 128.178 147.56 130.034 146.408C131.954 145.256 132.914 143.688 132.914 141.704C132.914 140.296 132.402 139.144 131.378 138.248C130.354 137.288 128.69 136.456 126.386 135.752C124.146 134.984 121.138 134.216 117.362 133.448C112.498 132.424 108.338 131.112 104.882 129.512C101.49 127.848 98.8983 125.704 97.1063 123.08C95.3143 120.392 94.4183 117.064 94.4183 113.096C94.4183 109.192 95.5063 105.704 97.6823 102.632C99.9223 99.56 103.026 97.16 106.994 95.432C110.962 93.704 115.666 92.84 121.106 92.84C125.522 92.84 129.394 93.416 132.722 94.568C136.114 95.72 138.962 97.256 141.266 99.176C143.57 101.096 145.298 103.144 146.45 105.32C147.666 107.432 148.306 109.512 148.37 111.56C148.37 112.072 148.178 112.552 147.794 113C147.41 113.384 146.93 113.576 146.354 113.576H133.682C132.978 113.576 132.37 113.448 131.858 113.192C131.346 112.936 130.898 112.52 130.514 111.944C130.13 110.536 129.106 109.32 127.442 108.296C125.842 107.208 123.73 106.664 121.106 106.664C118.29 106.664 116.082 107.176 114.482 108.2C112.946 109.16 112.178 110.664 112.178 112.712C112.178 113.992 112.594 115.112 113.426 116.072C114.322 117.032 115.762 117.864 117.746 118.568C119.794 119.272 122.578 120.008 126.098 120.776C131.922 121.864 136.626 123.24 140.21 124.904C143.794 126.504 146.418 128.616 148.082 131.24C149.746 133.8 150.578 137.032 150.578 140.936C150.578 145.288 149.33 149.064 146.834 152.264C144.402 155.4 141.01 157.8 136.658 159.464C132.306 161.128 127.314 161.96 121.682 161.96ZM162.589 161C161.949 161 161.373 160.776 160.861 160.328C160.413 159.88 160.189 159.304 160.189 158.6V96.2C160.189 95.496 160.413 94.92 160.861 94.472C161.373 94.024 161.949 93.8 162.589 93.8H172.957C173.981 93.8 174.749 94.088 175.261 94.664C175.837 95.176 176.189 95.592 176.317 95.912L193.213 126.248L210.109 95.912C210.301 95.592 210.621 95.176 211.069 94.664C211.581 94.088 212.381 93.8 213.469 93.8H223.741C224.445 93.8 225.021 94.024 225.469 94.472C225.981 94.92 226.237 95.496 226.237 96.2V158.6C226.237 159.304 225.981 159.88 225.469 160.328C225.021 160.776 224.445 161 223.741 161H212.317C211.613 161 211.005 160.776 210.493 160.328C210.045 159.88 209.821 159.304 209.821 158.6V122.6L198.973 142.664C198.717 143.24 198.333 143.752 197.821 144.2C197.309 144.648 196.605 144.872 195.709 144.872H190.717C189.821 144.872 189.117 144.648 188.605 144.2C188.093 143.752 187.677 143.24 187.357 142.664L176.509 122.6V158.6C176.509 159.304 176.285 159.88 175.837 160.328C175.389 160.776 174.813 161 174.109 161H162.589Z" fill="#19191B"/>
</svg>
