<svg width="256" height="256" viewBox="0 0 256 256" fill="none" xmlns="http://www.w3.org/2000/svg">
<g clip-path="url(#clip0_15_41)">
<mask id="mask0_15_41" style="mask-type:luminance" maskUnits="userSpaceOnUse" x="0" y="0" width="256" height="256">
<path d="M252 0H4C1.79086 0 0 1.79086 0 4V252C0 254.209 1.79086 256 4 256H252C254.209 256 256 254.209 256 252V4C256 1.79086 254.209 0 252 0Z" fill="white"/>
</mask>
<g mask="url(#mask0_15_41)">
<path d="M252 0H4C1.79086 0 0 1.79086 0 4V252C0 254.209 1.79086 256 4 256H252C254.209 256 256 254.209 256 252V4C256 1.79086 254.209 0 252 0Z" fill="#968FF8"/>
<path d="M72.28 223.917C92.8693 223.917 109.56 195.74 109.56 160.982C109.56 126.223 92.8693 98.046 72.28 98.046C51.6907 98.046 34.9998 126.223 34.9998 160.982C34.9998 195.74 51.6907 223.917 72.28 223.917Z" fill="#D5D5D5"/>
<path d="M184.28 223.917C204.869 223.917 221.56 195.74 221.56 160.982C221.56 126.223 204.869 98.046 184.28 98.046C163.691 98.046 147 126.223 147 160.982C147 195.74 163.691 223.917 184.28 223.917Z" fill="#D5D5D5"/>
<path d="M127.199 277.632C170.591 277.632 205.768 235.815 205.768 184.232C205.768 132.648 170.591 90.8305 127.199 90.8305C83.806 90.8305 48.6295 132.648 48.6295 184.232C48.6295 235.815 83.806 277.632 127.199 277.632Z" fill="#CFD0D4"/>
<path d="M83.5045 57.559C70.276 66.7785 55.3105 93.2355 52.237 108.067C52.237 108.067 73.082 141.339 128 141.339C182.918 141.339 204.5 110.633 204.5 108.067C204.5 104.86 196.948 70.3865 182.918 60.766C168.888 51.145 155.66 45.9339 129.604 45.533C103.548 45.1322 96.733 48.339 83.5045 57.559Z" fill="#CFD0D4"/>
<path d="M128.401 119.692L123.193 99.85H133.608L128.401 119.692Z" fill="#2B303D"/>
<path d="M101.54 81C108.48 81 110.993 84.851 111.386 86.9755C111.649 88.835 111.623 93.031 109.418 94.9435C106.661 97.3335 97.7365 100.163 95.238 92.553C93.407 86.9755 94.1875 84.5855 94.0565 84.5855C95.238 81.8155 97.628 81 101.54 81Z" fill="#2B303D"/>
<path d="M154.062 80.4255C147.076 80.4255 144.545 84.3185 144.149 86.466C143.884 88.3455 143.911 92.587 146.131 94.52C148.907 96.9365 157.891 99.796 160.406 92.104C162.25 86.466 161.464 84.05 161.596 84.05C160.406 81.25 158 80.4255 154.062 80.4255Z" fill="#2B303D"/>
</g>
</g>
<defs>
<clipPath id="clip0_15_41">
<rect width="256" height="256" rx="32" fill="white"/>
</clipPath>
</defs>
</svg>
