<svg width="256" height="256" viewBox="0 0 256 256" fill="none" xmlns="http://www.w3.org/2000/svg">
<rect width="256" height="256" rx="32" fill="#BEA3F8"/>
<path d="M33.8874 161.6C33.2474 161.6 32.6714 161.376 32.1594 160.928C31.7114 160.48 31.4874 159.904 31.4874 159.2V96.8C31.4874 96.096 31.7114 95.52 32.1594 95.072C32.6714 94.624 33.2474 94.4 33.8874 94.4H44.2554C45.2794 94.4 46.0474 94.688 46.5594 95.264C47.1354 95.776 47.4874 96.192 47.6154 96.512L64.5114 126.848L81.4074 96.512C81.5994 96.192 81.9194 95.776 82.3674 95.264C82.8794 94.688 83.6794 94.4 84.7674 94.4H95.0394C95.7434 94.4 96.3194 94.624 96.7674 95.072C97.2794 95.52 97.5354 96.096 97.5354 96.8V159.2C97.5354 159.904 97.2794 160.48 96.7674 160.928C96.3194 161.376 95.7434 161.6 95.0394 161.6H83.6154C82.9114 161.6 82.3034 161.376 81.7914 160.928C81.3434 160.48 81.1194 159.904 81.1194 159.2V123.2L70.2714 143.264C70.0154 143.84 69.6314 144.352 69.1194 144.8C68.6074 145.248 67.9034 145.472 67.0074 145.472H62.0154C61.1194 145.472 60.4154 145.248 59.9034 144.8C59.3914 144.352 58.9754 143.84 58.6554 143.264L47.8074 123.2V159.2C47.8074 159.904 47.5834 160.48 47.1354 160.928C46.6874 161.376 46.1114 161.6 45.4074 161.6H33.8874Z" fill="#19191B"/>
<path d="M107.054 161.6C106.542 161.6 106.062 161.408 105.614 161.024C105.23 160.576 105.038 160.096 105.038 159.584C105.038 159.264 105.07 158.976 105.134 158.72L127.694 97.088C127.886 96.384 128.27 95.776 128.846 95.264C129.486 94.688 130.35 94.4 131.438 94.4H145.646C146.734 94.4 147.566 94.688 148.142 95.264C148.782 95.776 149.198 96.384 149.39 97.088L171.854 158.72C171.982 158.976 172.046 159.264 172.046 159.584C172.046 160.096 171.822 160.576 171.374 161.024C170.99 161.408 170.51 161.6 169.934 161.6H158.126C157.166 161.6 156.43 161.376 155.918 160.928C155.47 160.416 155.182 159.968 155.054 159.584L151.31 149.792H125.678L122.03 159.584C121.902 159.968 121.614 160.416 121.166 160.928C120.718 161.376 119.95 161.6 118.862 161.6H107.054ZM129.614 135.968H147.47L138.446 110.624L129.614 135.968Z" fill="#19191B"/>
<path d="M189.953 161.6C189.249 161.6 188.673 161.376 188.225 160.928C187.777 160.48 187.553 159.904 187.553 159.2V109.472H170.465C169.761 109.472 169.185 109.248 168.737 108.8C168.289 108.288 168.065 107.712 168.065 107.072V96.8C168.065 96.096 168.289 95.52 168.737 95.072C169.185 94.624 169.761 94.4 170.465 94.4H222.113C222.817 94.4 223.393 94.624 223.841 95.072C224.289 95.52 224.513 96.096 224.513 96.8V107.072C224.513 107.712 224.289 108.288 223.841 108.8C223.393 109.248 222.817 109.472 222.113 109.472H205.025V159.2C205.025 159.904 204.801 160.48 204.353 160.928C203.905 161.376 203.329 161.6 202.625 161.6H189.953Z" fill="#19191B"/>
</svg>
